<svg width="59" height="51" viewBox="0 0 59 51" fill="none" xmlns="http://www.w3.org/2000/svg">
<path fill-rule="evenodd" clip-rule="evenodd" d="M58.8897 51L29.4449 0L0 51H12.9698L29.4449 22.4643L45.92 51H58.8897Z" fill="url(#paint0_linear_202_2652)"/>
<path d="M29.4449 0L0 51H12.9698L29.4449 22.4643C29.4449 22.4643 31.0989 15.76 31.1161 11.3839C31.1337 6.89061 29.4449 0 29.4449 0Z" fill="url(#paint1_linear_202_2652)"/>
<path d="M29.4464 22.4642L45.8393 50.9999L58.8929 50.9999C58.8929 50.9999 47.5378 31.7051 36.7322 25.1964C33.5755 23.2949 29.4464 22.4642 29.4464 22.4642Z" fill="url(#paint2_linear_202_2652)"/>
<defs>
<linearGradient id="paint0_linear_202_2652" x1="29.4449" y1="0" x2="29.4449" y2="51" gradientUnits="userSpaceOnUse">
<stop stop-color="#91E4FF"/>
<stop offset="1" stop-color="#2854FF"/>
</linearGradient>
<linearGradient id="paint1_linear_202_2652" x1="29.4449" y1="0" x2="29.4449" y2="51" gradientUnits="userSpaceOnUse">
<stop stop-color="#1C3BB4"/>
<stop offset="0.0001" stop-color="#2854FF"/>
<stop offset="0.572917" stop-color="#1D3DB9"/>
<stop offset="1" stop-color="#1D3DB9"/>
</linearGradient>
<linearGradient id="paint2_linear_202_2652" x1="44.1697" y1="22.4642" x2="44.1697" y2="50.9999" gradientUnits="userSpaceOnUse">
<stop stop-color="#1C3BB4"/>
<stop offset="1" stop-color="#1C3BB4" stop-opacity="0"/>
</linearGradient>
</defs>
</svg>
